<?xml version="1.0" encoding="UTF-8"?>
<svg width="1453px" height="2912px" viewBox="0 0 1453 2912" version="1.1" xmlns="http://www.w3.org/2000/svg" xmlns:xlink="http://www.w3.org/1999/xlink">
    <title>Apple iPhone 11 Pro Max Midnight Green</title>
    <defs>
        <path d="M689.5,37 C1070.30033,37 1379,27.8103994 1379,16.4744526 C1379,5.13850572 956.176845,8.87791027e-16 689.5,0 C422.823155,-8.76261272e-16 0,5.13850572 0,16.4744526 C0,27.8103994 308.699665,37 689.5,37 Z" id="path-1"></path>
        <filter x="-5.0%" y="-178.4%" width="110.0%" height="473.0%" filterUnits="objectBoundingBox" id="filter-2">
            <feOffset dx="0" dy="3" in="SourceAlpha" result="shadowOffsetOuter1"></feOffset>
            <feGaussianBlur stdDeviation="22.5" in="shadowOffsetOuter1" result="shadowBlurOuter1"></feGaussianBlur>
            <feColorMatrix values="0 0 0 0 0   0 0 0 0 0   0 0 0 0 0  0 0 0 0.12 0" type="matrix" in="shadowBlurOuter1"></feColorMatrix>
        </filter>
        <path d="M688.500725,31 C1056.60772,31 1355.01739,23.7973401 1355.01739,14.9124088 C1355.01739,6.02747746 946.288341,2 688.500725,2 C430.713108,2 21.984058,6.02747746 21.984058,14.9124088 C21.984058,23.7973401 320.393734,31 688.500725,31 Z" id="path-3"></path>
        <filter x="-2.1%" y="-87.9%" width="104.3%" height="296.6%" filterUnits="objectBoundingBox" id="filter-4">
            <feOffset dx="0" dy="3" in="SourceAlpha" result="shadowOffsetOuter1"></feOffset>
            <feGaussianBlur stdDeviation="9" in="shadowOffsetOuter1" result="shadowBlurOuter1"></feGaussianBlur>
            <feColorMatrix values="0 0 0 0 0   0 0 0 0 0   0 0 0 0 0  0 0 0 0.08 0" type="matrix" in="shadowBlurOuter1"></feColorMatrix>
        </filter>
        <path d="M690.499275,23 C1033.21958,23 1311.04928,19.2744862 1311.04928,14.6788321 C1311.04928,10.083178 930.508436,8 690.499275,8 C450.490115,8 69.9492754,10.083178 69.9492754,14.6788321 C69.9492754,19.2744862 347.778974,23 690.499275,23 Z" id="path-5"></path>
        <filter x="-1.6%" y="-110.0%" width="103.1%" height="360.0%" filterUnits="objectBoundingBox" id="filter-6">
            <feOffset dx="0" dy="3" in="SourceAlpha" result="shadowOffsetOuter1"></feOffset>
            <feGaussianBlur stdDeviation="6" in="shadowOffsetOuter1" result="shadowBlurOuter1"></feGaussianBlur>
            <feColorMatrix values="0 0 0 0 0   0 0 0 0 0   0 0 0 0 0  0 0 0 0.24 0" type="matrix" in="shadowBlurOuter1"></feColorMatrix>
        </filter>
        <path d="M229.987284,8 L1172.01272,8 C1230.13002,8 1261.96139,14.1469211 1295.15739,31.9003393 C1326.42285,48.6212902 1351.37871,73.5771464 1368.09966,104.842606 C1385.85308,138.038612 1392,169.869982 1392,227.987284 L1392,2616.01272 C1392,2674.13002 1385.85308,2705.96139 1368.09966,2739.15739 C1351.37871,2770.42285 1326.42285,2795.37871 1295.15739,2812.09966 C1261.96139,2829.85308 1230.13002,2836 1172.01272,2836 L229.987284,2836 C171.869982,2836 140.038612,2829.85308 106.842606,2812.09966 C75.5771464,2795.37871 50.6212902,2770.42285 33.9003393,2739.15739 C16.1469211,2705.96139 10,2674.13002 10,2616.01272 L10,227.987284 C10,169.869982 16.1469211,138.038612 33.9003393,104.842606 C50.6212902,73.5771464 75.5771464,48.6212902 106.842606,31.9003393 C140.038612,14.1469211 171.869982,8 229.987284,8 Z" id="path-7"></path>
        <filter x="-0.5%" y="-0.2%" width="101.0%" height="100.5%" filterUnits="objectBoundingBox" id="filter-8">
            <feMorphology radius="8" operator="erode" in="SourceAlpha" result="shadowSpreadInner1"></feMorphology>
            <feGaussianBlur stdDeviation="3" in="shadowSpreadInner1" result="shadowBlurInner1"></feGaussianBlur>
            <feOffset dx="0" dy="0" in="shadowBlurInner1" result="shadowOffsetInner1"></feOffset>
            <feComposite in="shadowOffsetInner1" in2="SourceAlpha" operator="arithmetic" k2="-1" k3="1" result="shadowInnerInner1"></feComposite>
            <feColorMatrix values="0 0 0 0 0.556862745   0 0 0 0 0.623529412   0 0 0 0 0.6  0 0 0 1 0" type="matrix" in="shadowInnerInner1" result="shadowMatrixInner1"></feColorMatrix>
            <feMorphology radius="2" operator="erode" in="SourceAlpha" result="shadowSpreadInner2"></feMorphology>
            <feGaussianBlur stdDeviation="4" in="shadowSpreadInner2" result="shadowBlurInner2"></feGaussianBlur>
            <feOffset dx="0" dy="0" in="shadowBlurInner2" result="shadowOffsetInner2"></feOffset>
            <feComposite in="shadowOffsetInner2" in2="SourceAlpha" operator="arithmetic" k2="-1" k3="1" result="shadowInnerInner2"></feComposite>
            <feColorMatrix values="0 0 0 0 0.177763595   0 0 0 0 0.223612883   0 0 0 0 0.211386406  0 0 0 1 0" type="matrix" in="shadowInnerInner2" result="shadowMatrixInner2"></feColorMatrix>
            <feMerge>
                <feMergeNode in="shadowMatrixInner1"></feMergeNode>
                <feMergeNode in="shadowMatrixInner2"></feMergeNode>
            </feMerge>
        </filter>
        <linearGradient x1="50%" y1="0%" x2="50%" y2="6.40337236%" id="linearGradient-9">
            <stop stop-color="#FFFFFF" stop-opacity="0.7" offset="0%"></stop>
            <stop stop-color="#000000" stop-opacity="0" offset="100%"></stop>
        </linearGradient>
        <linearGradient x1="50%" y1="100%" x2="50%" y2="92.9314018%" id="linearGradient-10">
            <stop stop-color="#FFFFFF" stop-opacity="0.7" offset="0%"></stop>
            <stop stop-color="#000000" stop-opacity="0" offset="100%"></stop>
        </linearGradient>
        <path d="M225.897449,21 L1176.10255,21 C1234.72449,21 1266.83225,27.0817133 1300.3165,44.6467996 C1331.85344,61.1903713 1357.02599,85.8814907 1373.89213,116.81528 C1391.7997,149.659136 1398,181.152832 1398,238.653614 L1398,2601.34639 C1398,2658.84717 1391.7997,2690.34086 1373.89213,2723.18472 C1357.02599,2754.11851 1331.85344,2778.80963 1300.3165,2795.3532 C1266.83225,2812.91829 1234.72449,2819 1176.10255,2819 L225.897449,2819 C167.27551,2819 135.167746,2812.91829 101.683497,2795.3532 C70.1465572,2778.80963 44.9740076,2754.11851 28.1078676,2723.18472 C10.2002952,2690.34086 4,2658.84717 4,2601.34639 L4,238.653614 C4,181.152832 10.2002952,149.659136 28.1078676,116.81528 C44.9740076,85.8814907 70.1465572,61.1903713 101.683497,44.6467996 C135.167746,27.0817133 167.27551,21 225.897449,21 Z" id="path-11"></path>
        <filter x="0.0%" y="0.0%" width="100.0%" height="100.0%" filterUnits="objectBoundingBox" id="filter-12">
            <feGaussianBlur stdDeviation="0" in="SourceGraphic"></feGaussianBlur>
        </filter>
        <linearGradient x1="50%" y1="100%" x2="50%" y2="98.8447828%" id="linearGradient-13">
            <stop stop-color="#FFFFFF" stop-opacity="0.75" offset="0%"></stop>
            <stop stop-color="#FFFFFF" stop-opacity="0" offset="100%"></stop>
        </linearGradient>
        <linearGradient x1="50%" y1="0.0199743693%" x2="50%" y2="0.729888504%" id="linearGradient-14">
            <stop stop-color="#FFFFFF" stop-opacity="0.75" offset="0%"></stop>
            <stop stop-color="#FFFFFF" stop-opacity="0" offset="100%"></stop>
        </linearGradient>
        <path d="M240.93843,16 L1157.06157,16 C1213.58086,16 1244.53698,22.1121436 1276.82022,39.7651182 C1307.22599,56.3914668 1331.49565,81.20613 1347.75683,112.294699 C1365.0221,145.302892 1371,176.954169 1371,234.74266 L1371,2609.25734 C1371,2667.04583 1365.0221,2698.69711 1347.75683,2731.7053 C1331.49565,2762.79387 1307.22599,2787.60853 1276.82022,2804.23488 C1244.53698,2821.88786 1213.58086,2828 1157.06157,2828 L240.93843,2828 C184.419143,2828 153.463021,2821.88786 121.179785,2804.23488 C90.7740122,2787.60853 66.5043517,2762.79387 50.2431664,2731.7053 C32.977903,2698.69711 27,2667.04583 27,2609.25734 L27,234.74266 C27,176.954169 32.977903,145.302892 50.2431664,112.294699 C66.5043517,81.20613 90.7740122,56.3914668 121.179785,39.7651182 C153.463021,22.1121436 184.419143,16 240.93843,16 Z" id="path-15"></path>
        <filter x="0.0%" y="0.0%" width="100.0%" height="100.0%" filterUnits="objectBoundingBox" id="filter-16">
            <feGaussianBlur stdDeviation="0" in="SourceGraphic"></feGaussianBlur>
        </filter>
        <linearGradient x1="50%" y1="0%" x2="50%" y2="100%" id="linearGradient-17">
            <stop stop-color="#5F5F5F" offset="0%"></stop>
            <stop stop-color="#222222" offset="1.01238%"></stop>
            <stop stop-color="#252525" offset="100%"></stop>
        </linearGradient>
        <linearGradient x1="50%" y1="0%" x2="50%" y2="100%" id="linearGradient-18">
            <stop stop-color="#6D6D6D" offset="0%"></stop>
            <stop stop-color="#000000" offset="1.61167607%"></stop>
            <stop stop-color="#000000" offset="98.4696655%"></stop>
            <stop stop-color="#5C5C5C" offset="100%"></stop>
        </linearGradient>
        <radialGradient cx="47.6478904%" cy="98.9928595%" fx="47.6478904%" fy="98.9928595%" r="60.2607568%" gradientTransform="translate(0.476479,0.989929),scale(1.000000,0.480519),rotate(90.000000),scale(1.000000,0.730042),translate(-0.476479,-0.989929)" id="radialGradient-19">
            <stop stop-color="#FFFFFF" stop-opacity="0.151268116" offset="0%"></stop>
            <stop stop-color="#FFFFFF" stop-opacity="0" offset="100%"></stop>
        </radialGradient>
        <path d="M227.856005,36 L1174.144,36 C1227.66154,36 1255.48743,41.1015879 1284.58137,56.5911089 C1311.08671,70.7024653 1332.14051,91.6614317 1346.31572,118.047374 C1361.87533,147.01026 1367,174.710806 1367,227.987284 L1367,2616.01272 C1367,2669.28919 1361.87533,2696.98974 1346.31572,2725.95263 C1332.14051,2752.33857 1311.08671,2773.29753 1284.58137,2787.40889 C1255.48743,2802.89841 1227.66154,2808 1174.144,2808 L227.856005,2808 C174.338457,2808 146.512569,2802.89841 117.418629,2787.40889 C90.9132934,2773.29753 69.8594901,2752.33857 55.6842813,2725.95263 C40.124672,2696.98974 35,2669.28919 35,2616.01272 L35,227.987284 C35,174.710806 40.124672,147.01026 55.6842813,118.047374 C69.8594901,91.6614317 90.9132934,70.7024653 117.418629,56.5911089 C146.512569,41.1015879 174.338457,36 227.856005,36 Z" id="path-20"></path>
        <path d="M9.73333333,-1.92734717e-13 C36.3733333,-1.92734717e-13 111.40168,-1.92734717e-13 138.266667,-1.92734717e-13 C141.466667,-1.92734717e-13 144.711111,1.33333333 148,4 L0,4 C3.28888889,1.33333333 6.53333333,-1.92734717e-13 9.73333333,-1.92734717e-13 Z" id="path-21"></path>
        <filter x="-1.4%" y="-50.0%" width="102.7%" height="200.0%" filterUnits="objectBoundingBox" id="filter-22">
            <feGaussianBlur stdDeviation="1.5" in="SourceAlpha" result="shadowBlurInner1"></feGaussianBlur>
            <feOffset dx="0" dy="1" in="shadowBlurInner1" result="shadowOffsetInner1"></feOffset>
            <feComposite in="shadowOffsetInner1" in2="SourceAlpha" operator="arithmetic" k2="-1" k3="1" result="shadowInnerInner1"></feComposite>
            <feColorMatrix values="0 0 0 0 0.299053997   0 0 0 0 0.299053997   0 0 0 0 0.299053997  0 0 0 1 0" type="matrix" in="shadowInnerInner1"></feColorMatrix>
        </filter>
        <path d="M82.4186294,2730.94967 C55.9132934,2716.81598 34.8594901,2695.85701 20.6842813,2669.47107 C5.12467196,2640.50818 0,2612.80764 0,2559.53116 L0,171.505727 C0,118.229249 5.12467197,90.528703 20.6842813,61.5658169 C34.8594901,35.1798744 55.9132934,14.220908 82.4186294,0.109551515 C86.6701545,-2.15394693 19.6842813,29.961802 19.6842813,161.505727 C19.6842813,583.361743 19.6842813,1902.07245 19.6842813,2569.53116 C19.6842813,2695.96376 84.3990848,2731.98172 82.4186294,2730.94967 Z" id="path-23"></path>
        <filter x="-16.9%" y="-0.5%" width="133.9%" height="101.0%" filterUnits="objectBoundingBox" id="filter-24">
            <feGaussianBlur stdDeviation="8.5" in="SourceAlpha" result="shadowBlurInner1"></feGaussianBlur>
            <feOffset dx="-11" dy="0" in="shadowBlurInner1" result="shadowOffsetInner1"></feOffset>
            <feComposite in="shadowOffsetInner1" in2="SourceAlpha" operator="arithmetic" k2="-1" k3="1" result="shadowInnerInner1"></feComposite>
            <feColorMatrix values="0 0 0 0 0   0 0 0 0 0   0 0 0 0 0  0 0 0 0.6 0" type="matrix" in="shadowInnerInner1"></feColorMatrix>
        </filter>
        <path d="M1331.80863,2730.94967 C1305.30329,2716.81598 1284.24949,2695.85701 1270.07428,2669.47107 C1254.51467,2640.50818 1249.39,2612.80764 1249.39,2559.53116 L1249.39,171.505727 C1249.39,118.229249 1254.51467,90.528703 1270.07428,61.5658169 C1284.24949,35.1798744 1305.30329,14.220908 1331.80863,0.109551515 C1336.06015,-2.15394693 1269.07428,29.961802 1269.07428,161.505727 C1269.07428,583.361743 1269.07428,1902.07245 1269.07428,2569.53116 C1269.07428,2695.96376 1333.78908,2731.98172 1331.80863,2730.94967 Z" id="path-25"></path>
        <filter x="-16.9%" y="-0.5%" width="133.9%" height="101.0%" filterUnits="objectBoundingBox" id="filter-26">
            <feGaussianBlur stdDeviation="8.5" in="SourceAlpha" result="shadowBlurInner1"></feGaussianBlur>
            <feOffset dx="-11" dy="0" in="shadowBlurInner1" result="shadowOffsetInner1"></feOffset>
            <feComposite in="shadowOffsetInner1" in2="SourceAlpha" operator="arithmetic" k2="-1" k3="1" result="shadowInnerInner1"></feComposite>
            <feColorMatrix values="0 0 0 0 0   0 0 0 0 0   0 0 0 0 0  0 0 0 0.6 0" type="matrix" in="shadowInnerInner1"></feColorMatrix>
        </filter>
        <linearGradient x1="27.1815237%" y1="44.9843764%" x2="54.6688703%" y2="44.9843764%" id="linearGradient-27">
            <stop stop-color="#697A73" offset="0%"></stop>
            <stop stop-color="#A5B8B3" offset="0.734795767%"></stop>
            <stop stop-color="#9DAAA5" offset="99.5732478%"></stop>
            <stop stop-color="#73827B" offset="100%"></stop>
        </linearGradient>
        <path d="M6.98099398,0 C3.12549747,0 0,3.13400675 0,7 L0,93 C0,96.8659932 3.12549747,100 6.98099398,100 L10.9701334,100 C10.9701334,94.7402344 11.0373333,5.14160156 10.9701334,0 L6.98099398,0 Z" id="path-28"></path>
        <filter x="-40.9%" y="-4.5%" width="181.8%" height="109.0%" filterUnits="objectBoundingBox" id="filter-29">
            <feGaussianBlur stdDeviation="1.5" in="SourceAlpha" result="shadowBlurInner1"></feGaussianBlur>
            <feOffset dx="0" dy="6" in="shadowBlurInner1" result="shadowOffsetInner1"></feOffset>
            <feComposite in="shadowOffsetInner1" in2="SourceAlpha" operator="arithmetic" k2="-1" k3="1" result="shadowInnerInner1"></feComposite>
            <feColorMatrix values="0 0 0 0 0   0 0 0 0 0   0 0 0 0 0  0 0 0 0.757614357 0" type="matrix" in="shadowInnerInner1" result="shadowMatrixInner1"></feColorMatrix>
            <feGaussianBlur stdDeviation="1.5" in="SourceAlpha" result="shadowBlurInner2"></feGaussianBlur>
            <feOffset dx="0" dy="-6" in="shadowBlurInner2" result="shadowOffsetInner2"></feOffset>
            <feComposite in="shadowOffsetInner2" in2="SourceAlpha" operator="arithmetic" k2="-1" k3="1" result="shadowInnerInner2"></feComposite>
            <feColorMatrix values="0 0 0 0 0   0 0 0 0 0   0 0 0 0 0  0 0 0 0.757614357 0" type="matrix" in="shadowInnerInner2" result="shadowMatrixInner2"></feColorMatrix>
            <feMerge>
                <feMergeNode in="shadowMatrixInner1"></feMergeNode>
                <feMergeNode in="shadowMatrixInner2"></feMergeNode>
            </feMerge>
        </filter>
        <linearGradient x1="27.1815237%" y1="44.9843764%" x2="54.6688703%" y2="44.9843764%" id="linearGradient-30">
            <stop stop-color="#697A73" offset="0%"></stop>
            <stop stop-color="#A5B8B3" offset="0.734795767%"></stop>
            <stop stop-color="#9DAAA5" offset="99.5732478%"></stop>
            <stop stop-color="#73827B" offset="100%"></stop>
        </linearGradient>
        <path d="M6.98099398,183 C4.7112355,183.55883 1.98945725,184.98988 0.536131425,187.022595 C0.23678211,187.441284 0,188.765951 0,189.148926 C0,208.368873 0,266.909726 0,364.771484 C0,365.180303 0.333278995,367.245605 0.537344187,367.74646 C1.71341602,370.632999 3.75686165,371.331299 6.98099398,373 L10.9701334,373 C10.9701334,367.740234 11.0373333,188.141602 10.9701334,183 L6.98099398,183 Z" id="path-31"></path>
        <filter x="-40.9%" y="-2.4%" width="181.8%" height="104.7%" filterUnits="objectBoundingBox" id="filter-32">
            <feGaussianBlur stdDeviation="1.5" in="SourceAlpha" result="shadowBlurInner1"></feGaussianBlur>
            <feOffset dx="0" dy="6" in="shadowBlurInner1" result="shadowOffsetInner1"></feOffset>
            <feComposite in="shadowOffsetInner1" in2="SourceAlpha" operator="arithmetic" k2="-1" k3="1" result="shadowInnerInner1"></feComposite>
            <feColorMatrix values="0 0 0 0 0   0 0 0 0 0   0 0 0 0 0  0 0 0 0.757614357 0" type="matrix" in="shadowInnerInner1" result="shadowMatrixInner1"></feColorMatrix>
            <feGaussianBlur stdDeviation="1.5" in="SourceAlpha" result="shadowBlurInner2"></feGaussianBlur>
            <feOffset dx="0" dy="-6" in="shadowBlurInner2" result="shadowOffsetInner2"></feOffset>
            <feComposite in="shadowOffsetInner2" in2="SourceAlpha" operator="arithmetic" k2="-1" k3="1" result="shadowInnerInner2"></feComposite>
            <feColorMatrix values="0 0 0 0 0   0 0 0 0 0   0 0 0 0 0  0 0 0 0.757614357 0" type="matrix" in="shadowInnerInner2" result="shadowMatrixInner2"></feColorMatrix>
            <feMerge>
                <feMergeNode in="shadowMatrixInner1"></feMergeNode>
                <feMergeNode in="shadowMatrixInner2"></feMergeNode>
            </feMerge>
        </filter>
        <path d="M6.98099398,420 C4.7112355,420.55883 1.98945725,421.98988 0.536131425,424.022595 C0.23678211,424.441284 0,425.765951 0,426.148926 C0,445.368873 0,503.909726 0,601.771484 C0,602.180303 0.333278995,604.245605 0.537344187,604.74646 C1.71341602,607.632999 3.75686165,608.331299 6.98099398,610 L10.9701334,610 C10.9701334,604.740234 11.0373333,425.141602 10.9701334,420 L6.98099398,420 Z" id="path-33"></path>
        <filter x="-40.9%" y="-2.4%" width="181.8%" height="104.7%" filterUnits="objectBoundingBox" id="filter-34">
            <feGaussianBlur stdDeviation="1.5" in="SourceAlpha" result="shadowBlurInner1"></feGaussianBlur>
            <feOffset dx="0" dy="6" in="shadowBlurInner1" result="shadowOffsetInner1"></feOffset>
            <feComposite in="shadowOffsetInner1" in2="SourceAlpha" operator="arithmetic" k2="-1" k3="1" result="shadowInnerInner1"></feComposite>
            <feColorMatrix values="0 0 0 0 0   0 0 0 0 0   0 0 0 0 0  0 0 0 0.757614357 0" type="matrix" in="shadowInnerInner1" result="shadowMatrixInner1"></feColorMatrix>
            <feGaussianBlur stdDeviation="1.5" in="SourceAlpha" result="shadowBlurInner2"></feGaussianBlur>
            <feOffset dx="0" dy="-6" in="shadowBlurInner2" result="shadowOffsetInner2"></feOffset>
            <feComposite in="shadowOffsetInner2" in2="SourceAlpha" operator="arithmetic" k2="-1" k3="1" result="shadowInnerInner2"></feComposite>
            <feColorMatrix values="0 0 0 0 0   0 0 0 0 0   0 0 0 0 0  0 0 0 0.757614357 0" type="matrix" in="shadowInnerInner2" result="shadowMatrixInner2"></feColorMatrix>
            <feMerge>
                <feMergeNode in="shadowMatrixInner1"></feMergeNode>
                <feMergeNode in="shadowMatrixInner2"></feMergeNode>
            </feMerge>
        </filter>
        <linearGradient x1="34.5969841%" y1="44.9843764%" x2="36.0937316%" y2="44.9843764%" id="linearGradient-35">
            <stop stop-color="#6F7D77" offset="0%"></stop>
            <stop stop-color="#98AAA5" offset="100%"></stop>
        </linearGradient>
        <linearGradient x1="50%" y1="0%" x2="50%" y2="100%" id="linearGradient-36">
            <stop stop-color="#000000" stop-opacity="0.996971241" offset="0%"></stop>
            <stop stop-color="#000000" stop-opacity="0" offset="9.51210679%"></stop>
            <stop stop-color="#000000" stop-opacity="0" offset="89.5462541%"></stop>
            <stop stop-color="#000000" stop-opacity="0.881057518" offset="100%"></stop>
        </linearGradient>
        <path d="M1408.98099,245 C1406.71124,245.55883 1403.98946,246.98988 1402.53613,249.022595 C1402.23678,249.441284 1402,250.765951 1402,251.148926 C1402,270.368873 1402,440.909726 1402,538.771484 C1402,539.180303 1402.33328,541.245605 1402.53734,541.74646 C1403.71342,544.632999 1405.75686,545.331299 1408.98099,547 L1412.97013,547 C1412.97013,541.740234 1413.03733,250.141602 1412.97013,245 L1408.98099,245 Z" id="path-37"></path>
        <filter x="-40.9%" y="-1.5%" width="181.8%" height="103.0%" filterUnits="objectBoundingBox" id="filter-38">
            <feGaussianBlur stdDeviation="1.5" in="SourceAlpha" result="shadowBlurInner1"></feGaussianBlur>
            <feOffset dx="0" dy="6" in="shadowBlurInner1" result="shadowOffsetInner1"></feOffset>
            <feComposite in="shadowOffsetInner1" in2="SourceAlpha" operator="arithmetic" k2="-1" k3="1" result="shadowInnerInner1"></feComposite>
            <feColorMatrix values="0 0 0 0 0   0 0 0 0 0   0 0 0 0 0  0 0 0 0.757614357 0" type="matrix" in="shadowInnerInner1" result="shadowMatrixInner1"></feColorMatrix>
            <feGaussianBlur stdDeviation="1.5" in="SourceAlpha" result="shadowBlurInner2"></feGaussianBlur>
            <feOffset dx="0" dy="-6" in="shadowBlurInner2" result="shadowOffsetInner2"></feOffset>
            <feComposite in="shadowOffsetInner2" in2="SourceAlpha" operator="arithmetic" k2="-1" k3="1" result="shadowInnerInner2"></feComposite>
            <feColorMatrix values="0 0 0 0 0   0 0 0 0 0   0 0 0 0 0  0 0 0 0.757614357 0" type="matrix" in="shadowInnerInner2" result="shadowMatrixInner2"></feColorMatrix>
            <feMerge>
                <feMergeNode in="shadowMatrixInner1"></feMergeNode>
                <feMergeNode in="shadowMatrixInner2"></feMergeNode>
            </feMerge>
        </filter>
        <rect id="path-39" x="0" y="0" width="156" height="24" rx="12"></rect>
        <rect id="path-41" x="0" y="0" width="156" height="24" rx="12"></rect>
        <filter x="-2.6%" y="-16.7%" width="105.1%" height="133.3%" filterUnits="objectBoundingBox" id="filter-43">
            <feMorphology radius="4" operator="erode" in="SourceAlpha" result="shadowSpreadInner1"></feMorphology>
            <feGaussianBlur stdDeviation="2" in="shadowSpreadInner1" result="shadowBlurInner1"></feGaussianBlur>
            <feOffset dx="0" dy="0" in="shadowBlurInner1" result="shadowOffsetInner1"></feOffset>
            <feComposite in="shadowOffsetInner1" in2="SourceAlpha" operator="arithmetic" k2="-1" k3="1" result="shadowInnerInner1"></feComposite>
            <feColorMatrix values="0 0 0 0 0   0 0 0 0 0   0 0 0 0 0  0 0 0 0.7950351 0" type="matrix" in="shadowInnerInner1" result="shadowMatrixInner1"></feColorMatrix>
            <feOffset dx="0" dy="-4" in="SourceAlpha" result="shadowOffsetInner2"></feOffset>
            <feComposite in="shadowOffsetInner2" in2="SourceAlpha" operator="arithmetic" k2="-1" k3="1" result="shadowInnerInner2"></feComposite>
            <feColorMatrix values="0 0 0 0 0   0 0 0 0 0   0 0 0 0 0  0 0 0 0.800130208 0" type="matrix" in="shadowInnerInner2" result="shadowMatrixInner2"></feColorMatrix>
            <feOffset dx="0" dy="-2" in="SourceAlpha" result="shadowOffsetInner3"></feOffset>
            <feComposite in="shadowOffsetInner3" in2="SourceAlpha" operator="arithmetic" k2="-1" k3="1" result="shadowInnerInner3"></feComposite>
            <feColorMatrix values="0 0 0 0 1   0 0 0 0 1   0 0 0 0 1  0 0 0 0.197067482 0" type="matrix" in="shadowInnerInner3" result="shadowMatrixInner3"></feColorMatrix>
            <feMerge>
                <feMergeNode in="shadowMatrixInner1"></feMergeNode>
                <feMergeNode in="shadowMatrixInner2"></feMergeNode>
                <feMergeNode in="shadowMatrixInner3"></feMergeNode>
            </feMerge>
        </filter>
        <radialGradient cx="121.058392%" cy="134.125808%" fx="121.058392%" fy="134.125808%" r="100.661381%" id="radialGradient-44">
            <stop stop-color="#434343" offset="0%"></stop>
            <stop stop-color="#121212" offset="100%"></stop>
        </radialGradient>
        <radialGradient cx="50%" cy="0%" fx="50%" fy="0%" r="100%" id="radialGradient-45">
            <stop stop-color="#2A4893" offset="0%"></stop>
            <stop stop-color="#213054" offset="100%"></stop>
        </radialGradient>
        <circle id="path-46" cx="21" cy="21" r="11"></circle>
        <filter x="-81.8%" y="-81.8%" width="263.6%" height="263.6%" filterUnits="objectBoundingBox" id="filter-48">
            <feMorphology radius="3" operator="dilate" in="SourceAlpha" result="shadowSpreadOuter1"></feMorphology>
            <feOffset dx="0" dy="0" in="shadowSpreadOuter1" result="shadowOffsetOuter1"></feOffset>
            <feGaussianBlur stdDeviation="3" in="shadowOffsetOuter1" result="shadowBlurOuter1"></feGaussianBlur>
            <feColorMatrix values="0 0 0 0 0   0 0 0 0 0   0 0 0 0 0  0 0 0 0.4 0" type="matrix" in="shadowBlurOuter1" result="shadowMatrixOuter1"></feColorMatrix>
            <feMorphology radius="1" operator="dilate" in="SourceAlpha" result="shadowSpreadOuter2"></feMorphology>
            <feOffset dx="0" dy="0" in="shadowSpreadOuter2" result="shadowOffsetOuter2"></feOffset>
            <feColorMatrix values="0 0 0 0 0   0 0 0 0 0   0 0 0 0 0  0 0 0 1 0" type="matrix" in="shadowOffsetOuter2" result="shadowMatrixOuter2"></feColorMatrix>
            <feMerge>
                <feMergeNode in="shadowMatrixOuter1"></feMergeNode>
                <feMergeNode in="shadowMatrixOuter2"></feMergeNode>
            </feMerge>
        </filter>
        <filter x="-36.3%" y="-108.3%" width="171.3%" height="314.8%" filterUnits="objectBoundingBox" id="filter-49">
            <feGaussianBlur stdDeviation="2.2075833" in="SourceGraphic"></feGaussianBlur>
        </filter>
        <filter x="-50.9%" y="-39.0%" width="201.9%" height="177.9%" filterUnits="objectBoundingBox" id="filter-50">
            <feGaussianBlur stdDeviation="2.2075833" in="SourceGraphic"></feGaussianBlur>
        </filter>
        <filter x="-25.3%" y="-38.7%" width="152.2%" height="178.7%" filterUnits="objectBoundingBox" id="filter-51">
            <feGaussianBlur stdDeviation="1.65741361" in="SourceGraphic"></feGaussianBlur>
        </filter>
        <path d="M288,0 C297.941125,0 305.72957,8.05894469 306,18 C306.542114,37.9282227 309.576285,48.4396546 314.815379,58.2359082 C320.567513,68.9914638 329.008536,77.4324867 339.764092,83.1846208 C350.519647,88.9367548 362.090097,92 386.098193,92 L386.098193,92 L855.901807,92 C879.909903,92 891.480353,88.9367548 902.235908,83.1846208 C912.991464,77.4324867 921.432487,68.9914638 927.184621,58.2359082 C932.426286,48.434846 935.425964,37.958374 936,18 C936.285921,8.05895296 944.058875,0 954,0 L954,0 L1092.01272,6.0596658e-15 C1144.16656,-3.52084034e-15 1163.07881,5.43029825 1182.14547,15.6272632 C1201.21214,25.8242281 1216.17577,40.7878597 1226.37274,59.8545263 C1236.5697,78.921193 1242,97.8334379 1242,149.987284 L1242,2538.01272 C1242,2590.16656 1236.5697,2609.07881 1226.37274,2628.14547 C1216.17577,2647.21214 1201.21214,2662.17577 1182.14547,2672.37274 C1163.07881,2682.5697 1144.16656,2688 1092.01272,2688 L149.987284,2688 C97.8334379,2688 78.921193,2682.5697 59.8545263,2672.37274 C40.7878597,2662.17577 25.8242281,2647.21214 15.6272632,2628.14547 C5.43029825,2609.07881 -1.45134691e-14,2590.16656 2.49789153e-14,2538.01272 L4.0397772e-15,149.987284 C-2.34722689e-15,97.8334379 5.43029825,78.921193 15.6272632,59.8545263 C25.8242281,40.7878597 40.7878597,25.8242281 59.8545263,15.6272632 C78.921193,5.43029825 97.8334379,3.52084034e-15 149.987284,-6.0596658e-15 Z" id="path-52"></path>
    </defs>
    <g id="Apple-iPhone-11-Pro-Max" stroke="none" stroke-width="1" fill="none" fill-rule="evenodd">
        <g id="Apple-iPhone-11-Pro-Max-Midnight-Green" transform="translate(20.000000, 0.000000)">
            <g id="Shadow" transform="translate(17.000000, 2827.000000)" fill="black" fill-opacity="1">
                <g id="Outer-Shadow">
                    <use filter="url(#filter-2)" xlink:href="#path-1"></use>
                </g>
                <g id="Middle-Shadow">
                    <use filter="url(#filter-4)" xlink:href="#path-3"></use>
                </g>
                <g id="Inner-Shadow">
                    <use filter="url(#filter-6)" xlink:href="#path-5"></use>
                </g>
            </g>
            <g id="Device">
                <g id="Body">
                    <g id="Phone-Shape" transform="translate(6.000000, 0.000000)">
                        <path d="M227.987284,0 L1170.01272,0 C1229.40206,0 1262.45532,6.40847341 1296.93018,24.8458337 C1329.58979,42.312383 1355.68762,68.4102078 1373.15417,101.069815 C1391.59153,135.544682 1398,168.597941 1398,227.987284 L1398,2616.01272 C1398,2675.40206 1391.59153,2708.45532 1373.15417,2742.93018 C1355.68762,2775.58979 1329.58979,2801.68762 1296.93018,2819.15417 C1262.45532,2837.59153 1229.40206,2844 1170.01272,2844 L227.987284,2844 C168.597941,2844 135.544682,2837.59153 101.069815,2819.15417 C68.4102078,2801.68762 42.312383,2775.58979 24.8458337,2742.93018 C6.40847341,2708.45532 0,2675.40206 0,2616.01272 L0,227.987284 C0,168.597941 6.40847341,135.544682 24.8458337,101.069815 C42.312383,68.4102078 68.4102078,42.312383 101.069815,24.8458337 C135.544682,6.40847341 168.597941,0 227.987284,0 Z" id="Device-Shape" fill="#000000"></path>
                        <g id="Metal-Band">
                            <use fill="#AEC1BB" fill-rule="evenodd" xlink:href="#path-7"></use>
                            <use fill="black" fill-opacity="1" filter="url(#filter-8)" xlink:href="#path-7"></use>
                        </g>
                        <g id="Reflection" filter="url(#filter-12)">
                            <use fill="url(#linearGradient-9)" xlink:href="#path-11"></use>
                            <use fill="url(#linearGradient-10)" xlink:href="#path-11"></use>
                        </g>
                        <g id="Reflection" opacity="0.215192522" filter="url(#filter-16)">
                            <use fill="url(#linearGradient-13)" xlink:href="#path-15"></use>
                            <use fill="url(#linearGradient-14)" xlink:href="#path-15"></use>
                        </g>
                        <path d="M1175.01272,22.5 L226.987284,22.5 C171.181801,22.5 141.548258,28.178528 110.68079,44.6866307 C81.944752,60.0548318 59.0548318,82.944752 43.6866307,111.68079 C27.178528,142.548258 21.5,172.181801 21.5,227.987284 L21.5,2616.01272 C21.5,2671.8182 27.178528,2701.45174 43.6866307,2732.31921 C59.0548318,2761.05525 81.944752,2783.94517 110.68079,2799.31337 C141.548258,2815.82147 171.181801,2821.5 226.987284,2821.5 L1175.01272,2821.5 C1230.8182,2821.5 1260.45174,2815.82147 1291.31921,2799.31337 C1320.05525,2783.94517 1342.94517,2761.05525 1358.31337,2732.31921 C1374.82147,2701.45174 1380.5,2671.8182 1380.5,2616.01272 L1380.5,227.987284 C1380.5,172.181801 1374.82147,142.548258 1358.31337,111.68079 C1342.94517,82.944752 1320.05525,60.0548318 1291.31921,44.6866307 C1260.45174,28.178528 1230.8182,22.5 1175.01272,22.5 Z" id="Glass" stroke="#000000" stroke-width="3" fill="url(#linearGradient-17)"></path>
                        <g id="Glass">
                            <use fill="url(#linearGradient-18)" xlink:href="#path-20"></use>
                            <use fill="url(#radialGradient-19)" xlink:href="#path-20"></use>
                        </g>
                        <path d="M229.987284,54 L1172.01272,54 C1223.18564,54 1247.84296,58.7615487 1273.46385,72.4637464 C1296.71296,84.8975065 1315.10249,103.287044 1327.53625,126.536154 C1341.23845,152.157036 1346,176.814359 1346,227.987284 L1346,2616.01272 C1346,2667.18564 1341.23845,2691.84296 1327.53625,2717.46385 C1315.10249,2740.71296 1296.71296,2759.10249 1273.46385,2771.53625 C1247.84296,2785.23845 1223.18564,2790 1172.01272,2790 L229.987284,2790 C178.814359,2790 154.157036,2785.23845 128.536154,2771.53625 C105.287044,2759.10249 86.8975065,2740.71296 74.4637464,2717.46385 C60.7615487,2691.84296 56,2667.18564 56,2616.01272 L56,227.987284 C56,176.814359 60.7615487,152.157036 74.4637464,126.536154 C86.8975065,103.287044 105.287044,84.8975065 128.536154,72.4637464 C154.157036,58.7615487 178.814359,54 229.987284,54 Z" id="Glass" fill="#000000" fill-rule="nonzero"></path>
                    </g>
                    <g id="Plug" transform="translate(631.000000, 2840.000000)">
                        <g>
                            <use fill="#191919" fill-rule="evenodd" xlink:href="#path-21"></use>
                            <use fill="black" fill-opacity="1" filter="url(#filter-22)" xlink:href="#path-21"></use>
                        </g>
                    </g>
                    <g id="Glass-Glare" transform="translate(41.000000, 57.000000)">
                        <g id="Glare">
                            <use fill-opacity="0.599524457" fill="#FFFFFF" fill-rule="evenodd" xlink:href="#path-23"></use>
                            <use fill="black" fill-opacity="1" filter="url(#filter-24)" xlink:href="#path-23"></use>
                        </g>
                        <g id="Glare" transform="translate(1290.696387, 1365.474837) scale(-1, 1) translate(-1290.696387, -1365.474837) ">
                            <use fill-opacity="0.599524457" fill="#FFFFFF" fill-rule="evenodd" xlink:href="#path-25"></use>
                            <use fill="black" fill-opacity="1" filter="url(#filter-26)" xlink:href="#path-25"></use>
                        </g>
                    </g>
                    <g id="Antenna-Bands" transform="translate(6.000000, 0.000000)" fill="#1B2522" opacity="0.602807971">
                        <rect id="Antenna-Band" x="0" y="251" width="23" height="17"></rect>
                        <rect id="Antenna-Band" x="1379" y="251" width="19" height="17"></rect>
                        <rect id="Antenna-Band" x="0" y="2576" width="23" height="17"></rect>
                        <rect id="Antenna-Band" x="1379" y="2576" width="19" height="17"></rect>
                        <rect id="Antenna-Band" transform="translate(1142.500000, 11.500000) rotate(-90.000000) translate(-1142.500000, -11.500000) " x="1131" y="3" width="23" height="17"></rect>
                        <rect id="Antenna-Band" transform="translate(259.500000, 2832.500000) rotate(-90.000000) translate(-259.500000, -2832.500000) " x="248" y="2824" width="23" height="17"></rect>
                    </g>
                    <g id="Buttons" transform="translate(0.000000, 352.000000)">
                        <g id="Mute">
                            <use fill="url(#linearGradient-27)" fill-rule="evenodd" xlink:href="#path-28"></use>
                            <use fill="black" fill-opacity="1" filter="url(#filter-29)" xlink:href="#path-28"></use>
                        </g>
                        <g id="Volume">
                            <use fill="url(#linearGradient-30)" fill-rule="evenodd" xlink:href="#path-31"></use>
                            <use fill="black" fill-opacity="1" filter="url(#filter-32)" xlink:href="#path-31"></use>
                        </g>
                        <g id="Volume">
                            <use fill="url(#linearGradient-30)" fill-rule="evenodd" xlink:href="#path-33"></use>
                            <use fill="black" fill-opacity="1" filter="url(#filter-34)" xlink:href="#path-33"></use>
                        </g>
                        <g id="Siri" transform="translate(1407.500000, 396.000000) scale(-1, 1) translate(-1407.500000, -396.000000) ">
                            <use fill="url(#linearGradient-35)" fill-rule="evenodd" xlink:href="#path-37"></use>
                            <use fill="url(#linearGradient-36)" fill-rule="evenodd" xlink:href="#path-37"></use>
                            <use fill="black" fill-opacity="1" filter="url(#filter-38)" xlink:href="#path-37"></use>
                        </g>
                    </g>
                </g>
                <g id="Front" transform="translate(629.000000, 87.000000)">
                    <g id="Speaker" opacity="0.801364272" transform="translate(0.000000, 11.000000)">
                        <mask id="mask-40" fill="white">
                            <use xlink:href="#path-39"></use>
                        </mask>
                        <use id="Mask" fill="#1D1C1C" xlink:href="#path-39"></use>
                        <path d="M156,19.25 L156,21 L0,21 L0,19.25 L156,19.25 Z M156,14.875 L156,16.625 L0,16.625 L0,14.875 L156,14.875 Z M156,9.625 L156,11.375 L0,11.375 L0,9.625 L156,9.625 Z M156,5.25 L156,7 L0,7 L0,5.25 L156,5.25 Z M156,0 L156,1.75 L0,1.75 L0,0 L156,0 Z" id="Grid" fill-opacity="0.149999991" fill="#000000" mask="url(#mask-40)"></path>
                        <path d="M156,23.25 L156,25 L0,25 L0,23.25 L156,23.25 Z M156,18.875 L156,20.625 L0,20.625 L0,18.875 L156,18.875 Z M156,13.625 L156,15.375 L0,15.375 L0,13.625 L156,13.625 Z M156,9.25 L156,11 L0,11 L0,9.25 L156,9.25 Z M156,4 L156,5.75 L0,5.75 L0,4 L156,4 Z" id="Grid" fill-opacity="0.03" fill="#FFFFFF" mask="url(#mask-40)"></path>
                        <path d="M5.27380952,0 L5.27380952,24 L3.5,24 L3.5,0 L5.27380952,0 Z M10.5952381,0 L10.5952381,24 L8.82142857,24 L8.82142857,0 L10.5952381,0 Z M15.0297619,0 L15.0297619,24 L13.2559524,24 L13.2559524,0 L15.0297619,0 Z M20.3511905,0 L20.3511905,24 L18.577381,24 L18.577381,0 L20.3511905,0 Z M24.7857143,0 L24.7857143,24 L23.0119048,24 L23.0119048,0 L24.7857143,0 Z M30.1071429,0 L30.1071429,24 L28.3333333,24 L28.3333333,0 L30.1071429,0 Z M34.5416667,0 L34.5416667,24 L32.7678571,24 L32.7678571,0 L34.5416667,0 Z M39.8630952,0 L39.8630952,24 L38.0892857,24 L38.0892857,0 L39.8630952,0 Z M44.297619,0 L44.297619,24 L42.5238095,24 L42.5238095,0 L44.297619,0 Z M49.6190476,0 L49.6190476,24 L47.8452381,24 L47.8452381,0 L49.6190476,0 Z M54.0535714,0 L54.0535714,24 L52.2797619,24 L52.2797619,0 L54.0535714,0 Z M59.375,0 L59.375,24 L57.6011905,24 L57.6011905,0 L59.375,0 Z M63.8095238,0 L63.8095238,24 L62.0357143,24 L62.0357143,0 L63.8095238,0 Z M69.1309524,0 L69.1309524,24 L67.3571429,24 L67.3571429,0 L69.1309524,0 Z M74.452381,0 L74.452381,24 L72.6785714,24 L72.6785714,0 L74.452381,0 Z M78.8869048,0 L78.8869048,24 L77.1130952,24 L77.1130952,0 L78.8869048,0 Z M84.2083333,0 L84.2083333,24 L82.4345238,24 L82.4345238,0 L84.2083333,0 Z M88.6428571,0 L88.6428571,24 L86.8690476,24 L86.8690476,0 L88.6428571,0 Z M93.9642857,0 L93.9642857,24 L92.1904762,24 L92.1904762,0 L93.9642857,0 Z M98.3988095,0 L98.3988095,24 L96.625,24 L96.625,0 L98.3988095,0 Z M103.720238,0 L103.720238,24 L101.946429,24 L101.946429,0 L103.720238,0 Z M108.154762,0 L108.154762,24 L106.380952,24 L106.380952,0 L108.154762,0 Z M113.47619,0 L113.47619,24 L111.702381,24 L111.702381,0 L113.47619,0 Z M117.910714,0 L117.910714,24 L116.136905,24 L116.136905,0 L117.910714,0 Z M123.232143,0 L123.232143,24 L121.458333,24 L121.458333,0 L123.232143,0 Z M127.666667,0 L127.666667,24 L125.892857,24 L125.892857,0 L127.666667,0 Z M132.988095,0 L132.988095,24 L131.214286,24 L131.214286,0 L132.988095,0 Z M138.309524,0 L138.309524,24 L136.535714,24 L136.535714,0 L138.309524,0 Z M142.744048,0 L142.744048,24 L140.970238,24 L140.970238,0 L142.744048,0 Z M148.065476,0 L148.065476,24 L146.291667,24 L146.291667,0 L148.065476,0 Z M152.5,0 L152.5,24 L150.72619,24 L150.72619,0 L152.5,0 Z" id="Grid" fill-opacity="0.149999991" fill="#000000" mask="url(#mask-40)"></path>
                        <path d="M1.19537815,0 L1.19537815,24 L-0.578431373,24 L-0.578431373,0 L1.19537815,0 Z M6.51680672,0 L6.51680672,24 L4.7429972,24 L4.7429972,0 L6.51680672,0 Z M10.9513305,0 L10.9513305,24 L9.17752101,24 L9.17752101,0 L10.9513305,0 Z M16.2727591,0 L16.2727591,24 L14.4989496,24 L14.4989496,0 L16.2727591,0 Z M20.7072829,0 L20.7072829,24 L18.9334734,24 L18.9334734,0 L20.7072829,0 Z M26.0287115,0 L26.0287115,24 L24.254902,24 L24.254902,0 L26.0287115,0 Z M30.4632353,0 L30.4632353,24 L28.6894258,24 L28.6894258,0 L30.4632353,0 Z M35.7846639,0 L35.7846639,24 L34.0108543,24 L34.0108543,0 L35.7846639,0 Z M40.2191877,0 L40.2191877,24 L38.4453782,24 L38.4453782,0 L40.2191877,0 Z M45.5406162,0 L45.5406162,24 L43.7668067,24 L43.7668067,0 L45.5406162,0 Z M49.9751401,0 L49.9751401,24 L48.2013305,24 L48.2013305,0 L49.9751401,0 Z M55.2965686,0 L55.2965686,24 L53.5227591,24 L53.5227591,0 L55.2965686,0 Z M59.7310924,0 L59.7310924,24 L57.9572829,24 L57.9572829,0 L59.7310924,0 Z M65.052521,0 L65.052521,24 L63.2787115,24 L63.2787115,0 L65.052521,0 Z M70.3739496,0 L70.3739496,24 L68.6001401,24 L68.6001401,0 L70.3739496,0 Z M74.8084734,0 L74.8084734,24 L73.0346639,24 L73.0346639,0 L74.8084734,0 Z M80.129902,0 L80.129902,24 L78.3560924,24 L78.3560924,0 L80.129902,0 Z M84.5644258,0 L84.5644258,24 L82.7906162,24 L82.7906162,0 L84.5644258,0 Z M89.8858543,0 L89.8858543,24 L88.1120448,24 L88.1120448,0 L89.8858543,0 Z M94.3203782,0 L94.3203782,24 L92.5465686,24 L92.5465686,0 L94.3203782,0 Z M99.6418067,0 L99.6418067,24 L97.8679972,24 L97.8679972,0 L99.6418067,0 Z M104.076331,0 L104.076331,24 L102.302521,24 L102.302521,0 L104.076331,0 Z M109.397759,0 L109.397759,24 L107.62395,24 L107.62395,0 L109.397759,0 Z M113.832283,0 L113.832283,24 L112.058473,24 L112.058473,0 L113.832283,0 Z M119.153711,0 L119.153711,24 L117.379902,24 L117.379902,0 L119.153711,0 Z M123.588235,0 L123.588235,24 L121.814426,24 L121.814426,0 L123.588235,0 Z M128.909664,0 L128.909664,24 L127.135854,24 L127.135854,0 L128.909664,0 Z M134.231092,0 L134.231092,24 L132.457283,24 L132.457283,0 L134.231092,0 Z M138.665616,0 L138.665616,24 L136.891807,24 L136.891807,0 L138.665616,0 Z M143.987045,0 L143.987045,24 L142.213235,24 L142.213235,0 L143.987045,0 Z M148.421569,0 L148.421569,24 L146.647759,24 L146.647759,0 L148.421569,0 Z" id="Grid" fill-opacity="0.03" fill="#FFFFFF" mask="url(#mask-40)"></path>
                        <mask id="mask-42" fill="white">
                            <use xlink:href="#path-41"></use>
                        </mask>
                        <g id="Shadow" opacity="0.244440688" fill="black" fill-opacity="1">
                            <use filter="url(#filter-43)" xlink:href="#path-41"></use>
                        </g>
                    </g>
                    <g id="Camera" transform="translate(195.000000, 0.000000)">
                        <circle id="Oval-" fill="url(#radialGradient-44)" cx="21" cy="21" r="21"></circle>
                        <mask id="mask-47" fill="white">
                            <use xlink:href="#path-46"></use>
                        </mask>
                        <g id="Mask" opacity="0.387534981">
                            <use fill="black" fill-opacity="1" filter="url(#filter-48)" xlink:href="#path-46"></use>
                            <use fill="url(#radialGradient-45)" fill-rule="evenodd" xlink:href="#path-46"></use>
                        </g>
                        <path d="M13.4262686,19.7092135 C17.4137085,19.7092135 21.0516006,21.647222 21.0516006,19.5125301 C21.0516006,17.3778381 20.9160074,16.9060461 13.045372,15.7381039 C5.1747367,14.5701618 3.05160062,18.6682382 3.05160062,20.8029302 C3.05160062,22.9376221 9.43882863,19.7092135 13.4262686,19.7092135 Z" id="Oval" fill="#3E89CC" filter="url(#filter-49)" mask="url(#mask-47)" transform="translate(12.172291, 18.589223) rotate(-76.000000) translate(-12.172291, -18.589223) "></path>
                        <ellipse id="Oval" fill="#1C5894" filter="url(#filter-50)" mask="url(#mask-47)" cx="29.5" cy="18.5" rx="6.5" ry="8.5"></ellipse>
                        <ellipse id="Oval" fill="#0A152B" filter="url(#filter-51)" mask="url(#mask-47)" transform="translate(23.222841, 29.880458) rotate(-16.000000) translate(-23.222841, -29.880458) " cx="23.2228412" cy="29.8804582" rx="9.83470328" ry="6.41827985"></ellipse>
                    </g>
                </g>
            </g>
            <g id="Screen-wrap" transform="translate(86.000000, 78.000000)">
                <mask id="mask-53" fill="white">
                    <use xlink:href="#path-52"></use>
                </mask>
                <!-- <use id="Mask" fill="#1D2129" xlink:href="#path-52"></use> -->
                <g id="Mask"></g>
                <!-- <rect fill="#1D2129" mask="url(#mask-53)" x="0" y="0" width="1242" height="2688"></rect> -->
                <image id="Screen" href="https://avinashbussa.com/qdp/wallpapers/11Promax_wall.jpg" mask="url(#mask-53)" x="0" y="0" width="1242" height="2688"/>
            </g>
        </g>
    </g>
</svg>