<?xml version="1.0" encoding="UTF-8"?>
<svg width="512px" height="512px" viewBox="0 0 512 512" version="1.1" xmlns="http://www.w3.org/2000/svg" xmlns:xlink="http://www.w3.org/1999/xlink">
    <!-- Generator: Sketch 63.1 (92452) - https://sketch.com -->
    <title>Group 55</title>
    <desc>Created with Sketch.</desc>
    <g id="Page-1" stroke="none" stroke-width="1" fill="none" fill-rule="evenodd">
        <g id="Group-55">
            <path d="M40,0 L392,0 C458.27417,-1.21743675e-14 512,53.72583 512,120 L512,472 C512,494.09139 494.09139,512 472,512 L120,512 C53.72583,512 8.11624501e-15,458.27417 0,392 L0,40 C-2.705415e-15,17.90861 17.90861,4.05812251e-15 40,0 Z" id="Rectangle" fill="#000000"></path>
            <g id="Quick-Design-Preview" transform="translate(68.198210, 90.750000)" fill-rule="nonzero">
                <g id="Group-56" transform="translate(0.348683, 0.716012)">
                    <path d="M54.8877337,94.6049613 L64.948729,85.7028241 L52.2012899,75.6945041 C56.3099686,72.4988651 59.5231661,68.258498 61.8408823,62.9734027 C64.1585985,57.6883074 65.3174566,51.4638347 65.3174566,44.2999847 L65.3174566,44.2999847 L65.3174566,40.8760857 C65.3174566,33.3610665 63.9566762,26.7327494 61.2351155,20.9911342 C58.5135548,15.2495191 54.668253,10.8423466 49.6992099,7.76961681 C44.7301668,4.696887 39.0500063,3.16052209 32.6587283,3.16052209 C26.2674503,3.16052209 20.5872897,4.696887 15.6182467,7.76961681 C10.6492036,10.8423466 6.80390173,15.2495191 4.08234104,20.9911342 C1.36078035,26.7327494 0,33.378625 0,40.9287611 L0,40.9287611 L0,44.7213876 C0.0351169121,52.0959392 1.42223494,58.6189056 4.16135409,64.2902869 C6.90047323,69.9616682 10.7633336,74.3249445 15.7499351,77.3801159 C20.7365366,80.4352872 26.4079179,81.9628729 32.764079,81.9628729 C34.765743,81.9628729 36.6971732,81.8048468 38.5583695,81.4887946 L38.5583695,81.4887946 L54.8877337,94.6049613 Z M32.764079,69.0047323 C27.3560746,69.0047323 23.2122789,66.8450422 20.3326921,62.5256621 C17.4531053,58.2062819 16.0133119,52.1310561 16.0133119,44.2999847 L16.0133119,44.2999847 L16.0133119,40.5600335 C16.0484288,32.5884945 17.5057807,26.5396063 20.3853675,22.4133692 C23.2649543,18.287132 27.3560746,16.2240134 32.6587283,16.2240134 C37.9964989,16.2240134 42.1051776,18.3134697 44.9847644,22.4923822 C47.8643512,26.6712948 49.3041446,32.7816375 49.3041446,40.8234104 L49.3041446,40.8234104 L49.3041446,44.5633615 C49.2690277,52.5349006 47.8292343,58.6013471 44.9847644,62.7627012 C42.1402946,66.9240553 38.0667328,69.0047323 32.764079,69.0047323 Z M94.4469352,81.9628729 C101.084032,81.9628729 106.281335,79.6802736 110.038844,75.1150751 L110.038844,75.1150751 L110.460247,80.9093656 L124.787947,80.9093656 L124.787947,23.9146172 L109.51209,23.9146172 L109.51209,64.2639492 C107.58066,67.8458742 104.033852,69.6368368 98.8716661,69.6368368 C93.4636616,69.6368368 90.7596594,66.6694577 90.7596594,60.7346995 L90.7596594,60.7346995 L90.7596594,23.9146172 L75.536478,23.9146172 L75.536478,61.2614532 C75.6067118,68.0390173 77.2484275,73.1836449 80.4616249,76.6953361 C83.6748224,80.2070273 88.3365925,81.9628729 94.4469352,81.9628729 Z M144.699236,17.0668193 C147.262771,17.0668193 149.32589,16.3293641 150.888592,14.8544538 C152.451295,13.3795435 153.232646,11.4832303 153.232646,9.16551407 C153.232646,6.88291478 152.460074,5.00415998 150.91493,3.52924967 C149.369786,2.05433936 147.297888,1.31688421 144.699236,1.31688421 C142.065468,1.31688421 139.984791,2.05433936 138.457205,3.52924967 C136.92962,5.00415998 136.165827,6.88291478 136.165827,9.16551407 C136.165827,11.4832303 136.947178,13.3795435 138.509881,14.8544538 C140.072583,16.3293641 142.135702,17.0668193 144.699236,17.0668193 Z M152.337165,80.9093656 L152.337165,23.9146172 L137.061308,23.9146172 L137.061308,80.9093656 L152.337165,80.9093656 Z M188.841195,81.9628729 C193.195692,81.9628729 197.172682,81.0761709 200.772166,79.3027668 C204.371649,77.5293628 207.20734,75.036062 209.279238,71.8228645 C211.351136,68.6096671 212.404643,65.0716382 212.43976,61.2087779 L212.43976,61.2087779 L198.164735,61.2087779 C198.094501,63.7723124 197.181462,65.8266518 195.425616,67.3717959 C193.66977,68.9169401 191.387171,69.6895121 188.577818,69.6895121 C184.925659,69.6895121 182.204099,68.4077448 180.413136,65.8442103 C178.622174,63.2806757 177.726692,59.0666462 177.726692,53.2021219 L177.726692,53.2021219 L177.726692,51.6218608 C177.726692,45.8275703 178.630953,41.6398786 180.439474,39.0587855 C182.247995,36.4776925 184.925659,35.187146 188.472467,35.187146 C191.352054,35.187146 193.66977,36.1089649 195.425616,37.9526028 C197.181462,39.7962407 198.094501,42.1929699 198.164735,45.1427905 L198.164735,45.1427905 L212.43976,45.1427905 C212.369526,38.4003434 210.183498,33.0011182 205.881677,28.9451148 C201.579855,24.8891115 195.864577,22.8611098 188.735844,22.8611098 C180.588721,22.8611098 174.179884,25.4773198 169.509335,30.7097397 C164.838786,35.9421596 162.503511,42.9479835 162.503511,51.7272116 L162.503511,51.7272116 L162.503511,52.7280436 C162.503511,61.8584407 164.856344,69.0135116 169.56201,74.1932561 C174.267676,79.3730007 180.694071,81.9628729 188.841195,81.9628729 Z M236.354377,80.9093656 L236.354377,63.5264941 L241.832615,58.0482558 L256.476368,80.9093656 L273.96459,80.9093656 L251.577559,47.6712082 L272.173628,23.9146172 L253.895275,23.9146172 L239.304198,41.0341118 L236.354377,44.8267383 L236.354377,0 L221.131196,0 L221.131196,80.9093656 L236.354377,80.9093656 Z" id="Quick" fill="#FFEB3B"></path>
                    <path d="M26.179658,197.380665 C32.8869882,197.345548 38.9095386,195.800404 44.2473093,192.745232 C49.5850799,189.690061 53.7200963,185.388239 56.6523585,179.839767 C59.5846207,174.291295 61.0507517,167.952692 61.0507517,160.823959 L61.0507517,160.823959 L61.0507517,157.294709 C61.0507517,150.165976 59.558283,143.801036 56.5733454,138.199888 C53.5884079,132.598741 49.4358331,128.279361 44.1156209,125.241748 C38.7954087,122.204135 32.764079,120.685329 26.0216319,120.685329 L26.0216319,120.685329 L2.42306694,120.685329 L2.42306694,197.380665 L26.179658,197.380665 Z M25.8636058,184.685901 L18.2256774,184.685901 L18.2256774,133.485443 L26.0216319,133.485443 C32.2373253,133.485443 36.96055,135.495886 40.1913059,139.516773 C43.4220619,143.537659 45.0374398,149.44608 45.0374398,157.242034 L45.0374398,157.242034 L45.0374398,161.298037 C44.967206,168.813057 43.2991527,174.589789 40.0332798,178.628234 C36.767407,182.666678 32.0441823,184.685901 25.8636058,184.685901 L25.8636058,184.685901 Z M97.7654834,198.434172 C102.506267,198.434172 106.825647,197.529912 110.723624,195.721391 C114.621601,193.91287 117.711889,191.393231 119.994489,188.162475 L119.994489,188.162475 L112.514586,179.787092 C109.213597,184.036238 104.63084,186.160811 98.7663154,186.160811 C94.9736889,186.160811 91.8395045,185.03707 89.3637622,182.789588 C86.8880198,180.542105 85.4043303,177.557168 84.9126935,173.834775 L84.9126935,173.834775 L121.206022,173.834775 L121.206022,167.619082 C121.206022,158.594035 118.967319,151.623328 114.489913,146.70696 C110.012506,141.790593 103.875826,139.332409 96.0798716,139.332409 C90.8825686,139.332409 86.2559154,140.552722 82.1999121,142.993347 C78.1439087,145.433972 75.0097243,148.910547 72.7973589,153.42307 C70.5849934,157.935593 69.4788107,163.053883 69.4788107,168.77794 L69.4788107,168.77794 L69.4788107,170.25285 C69.4788107,178.78626 72.1037998,185.616499 77.3537782,190.743568 C82.6037566,195.870637 89.4076583,198.434172 97.7654834,198.434172 Z M106.246218,163.457728 L85.0707196,163.457728 C85.5974733,159.665101 86.8002276,156.750397 88.6789824,154.713616 C90.5577372,152.676836 93.0071418,151.658445 96.0271962,151.658445 C99.2579521,151.658445 101.751253,152.580264 103.507099,154.423902 C105.262944,156.26754 106.175984,158.87497 106.246218,162.246194 L106.246218,162.246194 L106.246218,163.457728 Z M151.547034,198.434172 C158.605534,198.434172 164.364707,196.827573 168.824555,193.614376 C173.284403,190.401178 175.514327,186.195928 175.514327,180.998625 C175.514327,173.729424 171.49344,168.619914 163.451668,165.670093 C160.853016,164.721936 157.657377,163.870351 153.864751,163.115338 C150.072124,162.360324 147.376901,161.464843 145.779082,160.428894 C144.181262,159.392945 143.382352,158.032165 143.382352,156.346553 C143.382352,154.55559 144.08469,153.08068 145.489367,151.921822 C146.894043,150.762964 148.878149,150.183535 151.441684,150.183535 C154.426621,150.183535 156.621428,150.894652 158.026105,152.316887 C159.430781,153.739122 160.133119,155.538864 160.133119,157.716112 L160.133119,157.716112 L175.356301,157.716112 C175.356301,152.272991 173.187831,147.84826 168.850893,144.44192 C164.513954,141.035579 158.728443,139.332409 151.494359,139.332409 C144.716795,139.332409 139.229777,141.0268 135.033306,144.415582 C130.836835,147.804364 128.7386,152.027173 128.7386,157.084008 C128.7386,165.757885 135.516164,171.517059 149.071292,174.361529 C153.144854,175.204335 156.103454,176.16127 157.947092,177.232336 C159.790729,178.303402 160.712548,179.769533 160.712548,181.63073 C160.712548,183.421692 159.966314,184.870265 158.473845,185.976447 C156.981376,187.08263 154.77779,187.635722 151.863087,187.635722 C148.737681,187.635722 146.244381,186.915825 144.383184,185.476031 C142.521988,184.036238 141.521156,181.96434 141.380688,179.260338 L141.380688,179.260338 L126.947637,179.260338 C126.947637,182.701795 128.001145,185.906214 130.108159,188.873593 C132.215174,191.840972 135.121099,194.176246 138.825933,195.879417 C142.530767,197.582587 146.771134,198.434172 151.547034,198.434172 Z M193.740004,133.538118 C196.303539,133.538118 198.366657,132.800663 199.92936,131.325753 C201.492063,129.850843 202.273414,127.954529 202.273414,125.636813 C202.273414,123.354214 201.500842,121.475459 199.955698,120.000549 C198.410554,118.525638 196.338656,117.788183 193.740004,117.788183 C191.106236,117.788183 189.025559,118.525638 187.497973,120.000549 C185.970387,121.475459 185.206595,123.354214 185.206595,125.636813 C185.206595,127.954529 185.987946,129.850843 187.550648,131.325753 C189.113351,132.800663 191.17647,133.538118 193.740004,133.538118 Z M201.377933,197.380665 L201.377933,140.385916 L186.102076,140.385916 L186.102076,197.380665 L201.377933,197.380665 Z M236.407052,219.820372 C241.920408,219.820372 246.731425,218.854656 250.840103,216.923226 C254.948782,214.991796 258.135642,212.182443 260.400683,208.495167 C262.665724,204.807892 263.798244,200.470953 263.798244,195.484351 L263.798244,195.484351 L263.798244,140.385916 L249.997297,140.385916 L249.365193,145.758804 C245.888619,141.474541 241.024926,139.332409 234.774116,139.332409 C227.715617,139.332409 222.10569,142.001294 217.944336,147.339065 C213.782982,152.676836 211.702305,159.717776 211.702305,168.461888 L211.702305,168.461888 L211.702305,169.093992 C211.702305,177.943454 213.818099,185.045849 218.049687,190.401178 C222.281275,195.756507 227.820967,198.434172 234.668765,198.434172 C240.392822,198.434172 245.010696,196.450066 248.522387,192.481855 L248.522387,192.481855 L248.522387,195.537027 C248.522387,199.505238 247.398646,202.569188 245.151164,204.728879 C242.903681,206.888569 239.760718,207.968414 235.722273,207.968414 C230.314268,207.968414 225.713953,205.84384 221.921326,201.594694 L221.921326,201.594694 L215.178879,210.865559 C217.21566,213.499327 220.218156,215.650238 224.186367,217.318292 C228.154578,218.986345 232.22814,219.820372 236.407052,219.820372 Z M238.566743,186.108136 C234.949701,186.108136 232.105231,184.642005 230.033333,181.709743 C227.961435,178.77748 226.925486,174.730256 226.925486,169.56807 C226.925486,163.633312 227.970214,159.173464 230.059671,156.188527 C232.149127,153.203589 235.019934,151.71112 238.672093,151.71112 C243.202175,151.71112 246.485606,153.449408 248.522387,156.925982 L248.522387,156.925982 L248.522387,180.893274 C246.520723,184.369849 243.202175,186.108136 238.566743,186.108136 Z M290.399305,197.380665 L290.399305,157.189359 C292.541437,153.5372 295.754634,151.71112 300.038897,151.71112 C303.30477,151.71112 305.640045,152.439796 307.044721,153.897148 C308.449398,155.3545 309.151736,157.698554 309.151736,160.92931 L309.151736,160.92931 L309.151736,197.380665 L324.374917,197.380665 L324.374917,160.560582 C324.304684,153.502083 322.794656,148.199429 319.844836,144.652621 C316.895015,141.105813 312.40005,139.332409 306.359941,139.332409 C299.512144,139.332409 294.051464,141.878385 289.977902,146.970337 L289.977902,146.970337 L289.503824,140.385916 L275.176123,140.385916 L275.176123,197.380665 L290.399305,197.380665 Z M18.2256774,313.851964 L18.2256774,286.8295 L32.0792992,286.8295 C41.1745795,286.8295 48.2945334,284.661031 53.439161,280.324092 C58.5837887,275.987153 61.1561025,270.061174 61.1561025,262.546155 C61.1561025,257.594671 59.9796859,253.178719 57.6268528,249.2983 C55.2740197,245.417881 51.9115754,242.424164 47.5395198,240.31715 C43.1674642,238.210135 38.1018497,237.156628 32.3426761,237.156628 L32.3426761,237.156628 L2.42306694,237.156628 L2.42306694,313.851964 L18.2256774,313.851964 Z M32.3426761,274.029385 L18.2256774,274.029385 L18.2256774,249.956742 L32.7114037,249.956742 C36.6093809,250.026976 39.6645523,251.220951 41.8769177,253.538667 C44.0892832,255.856383 45.1954659,258.893996 45.1954659,262.651506 C45.1954659,266.303665 44.0980624,269.113018 41.9032554,271.079565 C39.7084484,273.046112 36.5215886,274.029385 32.3426761,274.029385 L32.3426761,274.029385 Z M86.2295777,313.851964 L86.2295777,276.557803 C88.0205403,272.659826 91.7956083,270.710837 97.5547819,270.710837 C99.135043,270.710837 100.961122,270.851305 103.03302,271.13224 L103.03302,271.13224 L103.243722,256.488488 C101.768811,256.031968 100.18855,255.803708 98.5029385,255.803708 C93.0949341,255.803708 88.8633462,258.419918 85.8081748,263.652338 L85.8081748,263.652338 L85.3867719,256.857215 L71.0063963,256.857215 L71.0063963,313.851964 L86.2295777,313.851964 Z M135.586398,314.905471 C140.327181,314.905471 144.646561,314.001211 148.544538,312.19269 C152.442516,310.384169 155.532804,307.86453 157.815403,304.633774 L157.815403,304.633774 L150.335501,296.258391 C147.034511,300.507537 142.451754,302.63211 136.58723,302.63211 C132.794603,302.63211 129.660419,301.508369 127.184677,299.260887 C124.708934,297.013404 123.225245,294.028467 122.733608,290.306074 L122.733608,290.306074 L159.026937,290.306074 L159.026937,284.090381 C159.026937,275.065334 156.788233,268.094627 152.310827,263.17826 C147.833421,258.261892 141.69674,255.803708 133.900786,255.803708 C128.703483,255.803708 124.07683,257.024021 120.020826,259.464646 C115.964823,261.905271 112.830639,265.381846 110.618273,269.894369 C108.405908,274.406892 107.299725,279.525182 107.299725,285.249239 L107.299725,285.249239 L107.299725,286.724149 C107.299725,295.257559 109.924714,302.087798 115.174693,307.214867 C120.424671,312.341937 127.228573,314.905471 135.586398,314.905471 Z M144.067132,279.929027 L122.891634,279.929027 C123.418388,276.1364 124.621142,273.221696 126.499897,271.184916 C128.378652,269.148135 130.828056,268.129744 133.848111,268.129744 C137.078867,268.129744 139.572167,269.051563 141.328013,270.895201 C143.083858,272.738839 143.996898,275.34627 144.067132,278.717493 L144.067132,278.717493 L144.067132,279.929027 Z M195.583642,313.851964 L214.810152,256.857215 L198.90219,256.857215 L188.314441,295.257559 L177.726692,256.857215 L161.818731,256.857215 L181.045241,313.851964 L195.583642,313.851964 Z M229.927982,250.009417 C232.491517,250.009417 234.554635,249.271962 236.117338,247.797052 C237.680041,246.322142 238.461392,244.425828 238.461392,242.108112 C238.461392,239.825513 237.68882,237.946758 236.143676,236.471848 C234.598532,234.996938 232.526634,234.259482 229.927982,234.259482 C227.294214,234.259482 225.213537,234.996938 223.685951,236.471848 C222.158365,237.946758 221.394573,239.825513 221.394573,242.108112 C221.394573,244.425828 222.175924,246.322142 223.738626,247.797052 C225.301329,249.271962 227.364448,250.009417 229.927982,250.009417 Z M237.565911,313.851964 L237.565911,256.857215 L222.290054,256.857215 L222.290054,313.851964 L237.565911,313.851964 Z M276.334982,314.905471 C281.075765,314.905471 285.395145,314.001211 289.293122,312.19269 C293.191099,310.384169 296.281388,307.86453 298.563987,304.633774 L298.563987,304.633774 L291.084085,296.258391 C287.783095,300.507537 283.200338,302.63211 277.335814,302.63211 C273.543187,302.63211 270.409003,301.508369 267.93326,299.260887 C265.457518,297.013404 263.973829,294.028467 263.482192,290.306074 L263.482192,290.306074 L299.77552,290.306074 L299.77552,284.090381 C299.77552,275.065334 297.536817,268.094627 293.059411,263.17826 C288.582005,258.261892 282.445324,255.803708 274.64937,255.803708 C269.452067,255.803708 264.825414,257.024021 260.76941,259.464646 C256.713407,261.905271 253.579223,265.381846 251.366857,269.894369 C249.154492,274.406892 248.048309,279.525182 248.048309,285.249239 L248.048309,285.249239 L248.048309,286.724149 C248.048309,295.257559 250.673298,302.087798 255.923276,307.214867 C261.173255,312.341937 267.977157,314.905471 276.334982,314.905471 Z M284.815716,279.929027 L263.640218,279.929027 C264.166972,276.1364 265.369726,273.221696 267.248481,271.184916 C269.127235,269.148135 271.57664,268.129744 274.596694,268.129744 C277.82745,268.129744 280.320751,269.051563 282.076597,270.895201 C283.832442,272.738839 284.745482,275.34627 284.815716,278.717493 L284.815716,278.717493 L284.815716,279.929027 Z M331.275391,313.851964 L342.073841,277.980038 L352.872292,313.851964 L365.619731,313.851964 L380.158132,256.857215 L365.461705,256.857215 L357.981802,293.150544 L347.604755,256.857215 L336.595603,256.857215 L326.16588,293.097869 L318.738653,256.857215 L304.042225,256.857215 L318.580627,313.851964 L331.275391,313.851964 Z" id="DesignPreview" fill="#FFFFFF"></path>
                </g>
            </g>
        </g>
    </g>
</svg>