<?xml version="1.0" encoding="UTF-8"?>
<svg width="192px" height="192px" viewBox="0 0 192 192" version="1.1" xmlns="http://www.w3.org/2000/svg" xmlns:xlink="http://www.w3.org/1999/xlink">
    <!-- Generator: Sketch 63.1 (92452) - https://sketch.com -->
    <title>Group 55 Copy 2</title>
    <desc>Created with Sketch.</desc>
    <g id="Page-1" stroke="none" stroke-width="1" fill="none" fill-rule="evenodd">
        <g id="Group-55-Copy-2">
            <path d="M15,0 L147,0 C171.852814,-4.56538782e-15 192,20.1471863 192,45 L192,177 C192,185.284271 185.284271,192 177,192 L45,192 C20.1471863,192 3.04359188e-15,171.852814 0,147 L0,15 C-1.01453063e-15,6.71572875 6.71572875,1.52179594e-15 15,0 Z" id="Rectangle" fill="#000000"></path>
            <g id="Quick-Design-Preview" transform="translate(25.574329, 34.031250)" fill-rule="nonzero">
                <g id="Group-56" transform="translate(0.130756, 0.268505)">
                    <path d="M20.5829001,35.4768605 L24.3557734,32.138559 L19.5754837,28.385439 C21.1162382,27.1870744 22.3211873,25.5969367 23.1903309,23.615026 C24.0594744,21.6331153 24.4940462,19.298938 24.4940462,16.6124942 L24.4940462,16.6124942 L24.4940462,15.3285321 C24.4940462,12.5103999 23.9837536,10.024781 22.9631683,7.87167534 C21.9425831,5.71856966 20.5005949,4.06587998 18.6372037,2.9136063 C16.7738126,1.76133262 14.6437524,1.18519578 12.2470231,1.18519578 C9.85029385,1.18519578 7.72023365,1.76133262 5.8568425,2.9136063 C3.99345135,4.06587998 2.55146315,5.71856966 1.53087789,7.87167534 C0.510292629,10.024781 0,12.5169844 0,15.3482854 L0,15.3482854 L0,16.7705204 C0.0131688421,19.5359772 0.533338103,21.9820896 1.56050778,24.1088576 C2.58767746,26.2356256 4.03625009,27.8718542 5.90622566,29.0175435 C7.77620123,30.1632327 9.90296922,30.7360773 12.2865296,30.7360773 C13.0371536,30.7360773 13.7614399,30.6768176 14.4593886,30.558298 L14.4593886,30.558298 L20.5829001,35.4768605 Z M12.2865296,25.8767746 C10.258528,25.8767746 8.7046046,25.0668908 7.62475955,23.4471233 C6.5449145,21.8273557 6.00499198,19.549146 6.00499198,16.6124942 L6.00499198,16.6124942 L6.00499198,15.2100126 C6.01816082,12.2206854 6.56466776,9.95235238 7.64451281,8.40501344 C8.72435786,6.8576745 10.258528,6.08400503 12.2470231,6.08400503 C14.2486871,6.08400503 15.7894416,6.86755113 16.8692867,8.43464333 C17.9491317,10.0017355 18.4890542,12.2931141 18.4890542,15.3087789 L18.4890542,15.3087789 L18.4890542,16.7112606 C18.4758854,19.7005877 17.9359629,21.9755052 16.8692867,23.536013 C15.8026105,25.0965207 14.2750248,25.8767746 12.2865296,25.8767746 Z M35.4176007,30.7360773 C37.9065118,30.7360773 39.8555005,29.8801026 41.2645666,28.1681531 L41.2645666,28.1681531 L41.4225927,30.3410121 L46.7954802,30.3410121 L46.7954802,8.96798144 L41.0670339,8.96798144 L41.0670339,24.098981 C40.3427476,25.4422028 39.0126946,26.1138138 37.0768748,26.1138138 C35.0488731,26.1138138 34.0348723,25.0010466 34.0348723,22.7755123 L34.0348723,22.7755123 L34.0348723,8.96798144 L28.3261793,8.96798144 L28.3261793,22.973045 C28.3525169,25.5146315 28.9681603,27.4438668 30.1731093,28.760751 C31.3780584,30.0776352 33.1262222,30.7360773 35.4176007,30.7360773 Z M54.2622137,6.40005724 C55.2235391,6.40005724 55.9972086,6.12351155 56.5832221,5.57042019 C57.1692356,5.01732882 57.4622423,4.30621135 57.4622423,3.43706778 C57.4622423,2.58109304 57.1725278,1.87655999 56.5930987,1.32346863 C56.0136697,0.77037726 55.236708,0.493831577 54.2622137,0.493831577 C53.2745505,0.493831577 52.4942966,0.77037726 51.921452,1.32346863 C51.3486074,1.87655999 51.0621851,2.58109304 51.0621851,3.43706778 C51.0621851,4.30621135 51.3551918,5.01732882 51.9412053,5.57042019 C52.5272187,6.12351155 53.3008882,6.40005724 54.2622137,6.40005724 Z M57.1264368,30.3410121 L57.1264368,8.96798144 L51.3979905,8.96798144 L51.3979905,30.3410121 L57.1264368,30.3410121 Z M70.8154481,30.7360773 C72.4483845,30.7360773 73.9397559,30.4035641 75.2895622,29.7385376 C76.6393685,29.073511 77.7027525,28.1385233 78.4797142,26.9335742 C79.2566759,25.7286252 79.6517411,24.4018643 79.66491,22.9532917 L79.66491,22.9532917 L74.3117757,22.9532917 C74.285438,23.9146172 73.9430481,24.6849944 73.284606,25.2644235 C72.6261639,25.8438525 71.7701892,26.133567 70.7166818,26.133567 C69.3471222,26.133567 68.326537,25.6529043 67.654926,24.6915788 C66.9833151,23.7302534 66.6475096,22.1499923 66.6475096,19.9507957 L66.6475096,19.9507957 L66.6475096,19.3581978 C66.6475096,17.1853389 66.9866073,15.6149545 67.6648027,14.6470446 C68.342998,13.6791347 69.3471222,13.1951797 70.6771753,13.1951797 C71.7570203,13.1951797 72.6261639,13.5408618 73.284606,14.232226 C73.9430481,14.9235903 74.285438,15.8223637 74.3117757,16.9285465 L74.3117757,16.9285465 L79.66491,16.9285465 C79.6385723,14.4001288 78.8188119,12.3754193 77.2056287,10.8544181 C75.5924456,9.3334168 73.4492165,8.57291617 70.7759416,8.57291617 C67.7207702,8.57291617 65.3174566,9.55399491 63.5660006,11.5161524 C61.8145446,13.4783098 60.9388166,16.1054938 60.9388166,19.3977043 L60.9388166,19.3977043 L60.9388166,19.7730163 C60.9388166,23.1969153 61.821129,25.8800668 63.5857538,27.822471 C65.3503787,29.7648752 67.7602768,30.7360773 70.8154481,30.7360773 Z M88.6328914,30.3410121 L88.6328914,23.8224353 L90.6872308,21.7680959 L96.1786379,30.3410121 L102.736721,30.3410121 L94.3415845,17.8767031 L102.06511,8.96798144 L95.210728,8.96798144 L89.7390742,15.3877919 L88.6328914,16.8100269 L88.6328914,0 L82.9241984,0 L82.9241984,30.3410121 L88.6328914,30.3410121 Z" id="Quick" fill="#FFEB3B"></path>
                    <path d="M9.81737175,74.0177492 C12.3326206,74.0045804 14.591077,73.4251514 16.592741,72.2794621 C18.594405,71.1337728 20.1450361,69.5205897 21.2446344,67.4399126 C22.3442327,65.3592356 22.8940319,62.9822596 22.8940319,60.3089847 L22.8940319,60.3089847 L22.8940319,58.985516 C22.8940319,56.3122411 22.3343561,53.9253885 21.2150045,51.8249582 C20.095653,49.7245279 18.5384374,48.1047603 16.5433578,46.9656555 C14.5482783,45.8265506 12.2865296,45.2569982 9.75811196,45.2569982 L9.75811196,45.2569982 L0.908650101,45.2569982 L0.908650101,74.0177492 L9.81737175,74.0177492 Z M9.69885217,69.2572128 L6.83462902,69.2572128 L6.83462902,50.0570411 L9.75811196,50.0570411 C12.088997,50.0570411 13.8602063,50.8109573 15.0717397,52.3187898 C16.2832732,53.8266222 16.8890399,56.0422798 16.8890399,58.9657628 L16.8890399,58.9657628 L16.8890399,60.486764 C16.8627022,63.3048962 16.2371822,65.4711708 15.0124799,66.9855876 C13.7877776,68.5000044 12.0165684,69.2572128 9.69885217,69.2572128 L9.69885217,69.2572128 Z M36.6620563,74.4128145 C38.4398499,74.4128145 40.0596175,74.0737168 41.521359,73.3955215 C42.9831005,72.7173261 44.1419586,71.7724617 44.9979333,70.5609282 L44.9979333,70.5609282 L42.1929699,67.4201594 C40.9550988,69.0135893 39.2365649,69.8103042 37.0373683,69.8103042 C35.6151333,69.8103042 34.4398142,69.3889013 33.5114108,68.5460954 C32.5830074,67.7032895 32.0266239,66.5839379 31.8422601,65.1880406 L31.8422601,65.1880406 L45.4522583,65.1880406 L45.4522583,62.8571556 C45.4522583,59.4727632 44.6127447,56.8587481 42.9337173,55.0151102 C41.2546899,53.1714723 38.9534348,52.2496533 36.0299519,52.2496533 C34.0809632,52.2496533 32.3459683,52.7072706 30.824967,53.6225051 C29.3039658,54.5377396 28.1286466,55.841455 27.2990096,57.5336512 C26.4693725,59.2258474 26.054554,61.1452061 26.054554,63.2917274 L26.054554,63.2917274 L26.054554,63.8448188 C26.054554,67.0448474 27.0389249,69.6061872 29.0076668,71.5288381 C30.9764087,73.451489 33.5278719,74.4128145 36.6620563,74.4128145 Z M39.8423316,61.2966478 L31.9015199,61.2966478 C32.0990525,59.8744129 32.5500853,58.781399 33.2546184,58.0176062 C33.9591514,57.2538133 34.8776782,56.8719169 36.0101986,56.8719169 C37.2217321,56.8719169 38.1567198,57.217599 38.8151619,57.9089632 C39.473604,58.6003274 39.8159939,59.5781139 39.8423316,60.8423228 L39.8423316,60.8423228 L39.8423316,61.2966478 Z M56.8301379,74.4128145 C59.4770751,74.4128145 61.6367652,73.81034 63.3092082,72.6053909 C64.9816511,71.4004419 65.8178726,69.8234731 65.8178726,67.8744844 C65.8178726,65.1485341 64.3100402,63.2324676 61.2943753,62.1262849 C60.319881,61.7707261 59.1215164,61.4513817 57.6992814,61.1682516 C56.2770465,60.8851215 55.2663379,60.549316 54.6671556,60.1608352 C54.0679732,59.7723544 53.7683821,59.2620617 53.7683821,58.6299573 C53.7683821,57.9583464 54.0317589,57.405255 54.5585126,56.9706832 C55.0852663,56.5361114 55.8293059,56.3188255 56.7906313,56.3188255 C57.9099829,56.3188255 58.7330355,56.5854946 59.2597892,57.1188327 C59.7865429,57.6521708 60.0499198,58.3270739 60.0499198,59.1435421 L60.0499198,59.1435421 L65.7586128,59.1435421 C65.7586128,57.1023716 64.9454368,55.4430975 63.3190848,54.1657199 C61.6927328,52.8883422 59.5231661,52.2496533 56.8103846,52.2496533 C54.2687981,52.2496533 52.2111665,52.88505 50.6374899,54.1558432 C49.0638133,55.4266365 48.276975,57.0101897 48.276975,58.906503 C48.276975,62.159207 50.8185615,64.3188971 55.9017345,65.3855733 C57.4293202,65.7016255 58.5387951,66.0604764 59.2301593,66.4621261 C59.9215235,66.8637758 60.2672056,67.413575 60.2672056,68.1115236 C60.2672056,68.7831345 59.9873678,69.3263493 59.427692,69.7411678 C58.8680162,70.1559863 58.0416713,70.3633956 56.9486574,70.3633956 C55.7766305,70.3633956 54.8416427,70.0934343 54.1436941,69.5535118 C53.4457455,69.0135893 53.0704335,68.2366276 53.0177581,67.2226267 L53.0177581,67.2226267 L47.605364,67.2226267 C47.605364,68.5131733 48.0004293,69.7148301 48.7905598,70.8275973 C49.5806903,71.9403644 50.670412,72.8160924 52.0597248,73.4547812 C53.4490377,74.0934701 55.0391754,74.4128145 56.8301379,74.4128145 Z M72.6525016,50.0767944 C73.6138271,50.0767944 74.3874965,49.8002487 74.97351,49.2471573 C75.5595235,48.694066 75.8525302,47.9829485 75.8525302,47.1138049 C75.8525302,46.2578302 75.5628157,45.5532972 74.9833866,45.0002058 C74.4039576,44.4471144 73.6269959,44.1705687 72.6525016,44.1705687 C71.6648384,44.1705687 70.8845845,44.4471144 70.3117399,45.0002058 C69.7388953,45.5532972 69.452473,46.2578302 69.452473,47.1138049 C69.452473,47.9829485 69.7454797,48.694066 70.3314932,49.2471573 C70.9175067,49.8002487 71.6911761,50.0767944 72.6525016,50.0767944 Z M75.5167247,74.0177492 L75.5167247,52.6447186 L69.7882784,52.6447186 L69.7882784,74.0177492 L75.5167247,74.0177492 Z M88.6526447,82.4326393 C90.7201529,82.4326393 92.5242842,82.0704962 94.0650388,81.3462098 C95.6057933,80.6219235 96.8008657,79.5684162 97.650256,78.1856878 C98.4996463,76.8029593 98.9243415,75.1766073 98.9243415,73.3066318 L98.9243415,73.3066318 L98.9243415,52.6447186 L93.7489866,52.6447186 L93.5119474,54.6595514 C92.208232,53.0529527 90.3843474,52.2496533 88.0402935,52.2496533 C85.3933563,52.2496533 83.2896338,53.2504853 81.729126,55.2521493 C80.1686182,57.2538133 79.3883643,59.8941661 79.3883643,63.1732078 L79.3883643,63.1732078 L79.3883643,63.410247 C79.3883643,66.7287952 80.181787,69.3921935 81.7686325,71.4004419 C83.355478,73.4086903 85.4328628,74.4128145 88.000787,74.4128145 C90.1473083,74.4128145 91.879011,73.6687749 93.1958952,72.1806958 L93.1958952,72.1806958 L93.1958952,73.326385 C93.1958952,74.8144642 92.7744922,75.9634457 91.9316864,76.7733294 C91.0888805,77.5832132 89.9102691,77.9881551 88.3958523,77.9881551 C86.3678506,77.9881551 84.6427323,77.1914402 83.2204973,75.5980103 L83.2204973,75.5980103 L80.6920797,79.0745846 C81.4558725,80.0622477 82.5818085,80.8688393 84.0698877,81.4943593 C85.5579668,82.1198793 87.0855525,82.4326393 88.6526447,82.4326393 Z M89.4625285,69.7905509 C88.1061377,69.7905509 87.0394615,69.2407518 86.2624999,68.1411535 C85.4855382,67.0415552 85.0970573,65.5238461 85.0970573,63.5880263 C85.0970573,61.362492 85.4888304,59.6900491 86.2723765,58.5706975 C87.0559226,57.4513459 88.1324754,56.8916702 89.502035,56.8916702 C91.2008156,56.8916702 92.4321024,57.5435278 93.1958952,58.8472432 L93.1958952,58.8472432 L93.1958952,67.8349779 C92.4452712,69.1386933 91.2008156,69.7905509 89.4625285,69.7905509 Z M108.899739,74.0177492 L108.899739,58.9460095 C109.703039,57.5764499 110.907988,56.8916702 112.514586,56.8916702 C113.739289,56.8916702 114.615017,57.1649236 115.14177,57.7114306 C115.668524,58.2579375 115.931901,59.1369577 115.931901,60.3484912 L115.931901,60.3484912 L115.931901,74.0177492 L121.640594,74.0177492 L121.640594,60.2102184 C121.614256,57.5632811 121.047996,55.574786 119.941813,54.2447329 C118.835631,52.9146799 117.150019,52.2496533 114.884978,52.2496533 C112.317054,52.2496533 110.269299,53.2043944 108.741713,55.1138765 L108.741713,55.1138765 L108.563934,52.6447186 L103.191046,52.6447186 L103.191046,74.0177492 L108.899739,74.0177492 Z M6.83462902,117.694486 L6.83462902,107.561062 L12.0297372,107.561062 C15.4404673,107.561062 18.11045,106.747886 20.0396854,105.121534 C21.9689208,103.495182 22.9335384,101.27294 22.9335384,98.4548082 C22.9335384,96.5980014 22.4923822,94.9420196 21.6100698,93.4868625 C20.7277574,92.0317055 19.4668408,90.9090617 17.8273199,90.1189312 C16.1877991,89.3288006 14.2881936,88.9337354 12.1285035,88.9337354 L12.1285035,88.9337354 L0.908650101,88.9337354 L0.908650101,117.694486 L6.83462902,117.694486 Z M12.1285035,102.76102 L6.83462902,102.76102 L6.83462902,93.7337783 L12.2667764,93.7337783 C13.7285178,93.760116 14.8742071,94.2078566 15.7038441,95.0770002 C16.5334812,95.9461438 16.9482997,97.0852486 16.9482997,98.4943147 C16.9482997,99.8638743 16.5367734,100.917382 15.7137208,101.654837 C14.8906681,102.392292 13.6955957,102.76102 12.1285035,102.76102 L12.1285035,102.76102 Z M32.3360917,117.694486 L32.3360917,103.709176 C33.0077026,102.247435 34.4233531,101.516564 36.5830432,101.516564 C37.1756411,101.516564 37.8604209,101.569239 38.6373826,101.67459 L38.6373826,101.67459 L38.7163956,96.1831829 C38.1633043,96.011988 37.5707064,95.9263905 36.938602,95.9263905 C34.9106003,95.9263905 33.3237548,96.9074692 32.1780656,98.8696267 L32.1780656,98.8696267 L32.0200394,96.3214558 L26.6273986,96.3214558 L26.6273986,117.694486 L32.3360917,117.694486 Z M50.8448992,118.089552 C52.6226928,118.089552 54.2424604,117.750454 55.7042019,117.072259 C57.1659433,116.394063 58.3248014,115.449199 59.1807762,114.237665 L59.1807762,114.237665 L56.3758128,111.096897 C55.1379417,112.690326 53.4194078,113.487041 51.2202112,113.487041 C49.7979762,113.487041 48.6226571,113.065638 47.6942537,112.222833 C46.7658503,111.380027 46.2094668,110.260675 46.025103,108.864778 L46.025103,108.864778 L59.6351012,108.864778 L59.6351012,106.533893 C59.6351012,103.1495 58.7955875,100.535485 57.1165602,98.6918473 C55.4375328,96.8482094 53.1362777,95.9263905 50.2127947,95.9263905 C48.2638061,95.9263905 46.5288112,96.3840078 45.0078099,97.2992423 C43.4868087,98.2144768 42.3114895,99.5181922 41.4818525,101.210388 C40.6522154,102.902585 40.2373969,104.821943 40.2373969,106.968465 L40.2373969,106.968465 L40.2373969,107.521556 C40.2373969,110.721585 41.2217678,113.282924 43.1905097,115.205575 C45.1592516,117.128226 47.7107147,118.089552 50.8448992,118.089552 Z M54.0251745,104.973385 L46.0843628,104.973385 C46.2818954,103.55115 46.7329282,102.458136 47.4374613,101.694343 C48.1419943,100.93055 49.0605211,100.548654 50.1930415,100.548654 C51.4045749,100.548654 52.3395627,100.894336 52.9980048,101.5857 C53.6564469,102.277065 53.9988368,103.254851 54.0251745,104.51906 L54.0251745,104.51906 L54.0251745,104.973385 Z M73.3438658,117.694486 L80.5538068,96.3214558 L74.5883214,96.3214558 L70.6179155,110.721585 L66.6475096,96.3214558 L60.6820242,96.3214558 L67.8919652,117.694486 L73.3438658,117.694486 Z M86.2229933,93.7535316 C87.1843188,93.7535316 87.9579883,93.4769859 88.5440017,92.9238945 C89.1300152,92.3708031 89.4230219,91.6596857 89.4230219,90.7905421 C89.4230219,89.9345674 89.1333074,89.2300343 88.5538784,88.6769429 C87.9744493,88.1238516 87.1974876,87.8473059 86.2229933,87.8473059 C85.2353302,87.8473059 84.4550763,88.1238516 83.8822317,88.6769429 C83.309387,89.2300343 83.0229647,89.9345674 83.0229647,90.7905421 C83.0229647,91.6596857 83.3159714,92.3708031 83.9019849,92.9238945 C84.4879984,93.4769859 85.2616679,93.7535316 86.2229933,93.7535316 Z M89.0872165,117.694486 L89.0872165,96.3214558 L83.3587702,96.3214558 L83.3587702,117.694486 L89.0872165,117.694486 Z M103.625618,118.089552 C105.403412,118.089552 107.023179,117.750454 108.484921,117.072259 C109.946662,116.394063 111.10552,115.449199 111.961495,114.237665 L111.961495,114.237665 L109.156532,111.096897 C107.918661,112.690326 106.200127,113.487041 104.00093,113.487041 C102.578695,113.487041 101.403376,113.065638 100.474973,112.222833 C99.5465693,111.380027 98.9901857,110.260675 98.8058219,108.864778 L98.8058219,108.864778 L112.41582,108.864778 L112.41582,106.533893 C112.41582,103.1495 111.576306,100.535485 109.897279,98.6918473 C108.218252,96.8482094 105.916997,95.9263905 102.993514,95.9263905 C101.044525,95.9263905 99.3095301,96.3840078 97.7885289,97.2992423 C96.2675276,98.2144768 95.0922084,99.5181922 94.2625714,101.210388 C93.4329343,102.902585 93.0181158,104.821943 93.0181158,106.968465 L93.0181158,106.968465 L93.0181158,107.521556 C93.0181158,110.721585 94.0024868,113.282924 95.9712287,115.205575 C97.9399705,117.128226 100.491434,118.089552 103.625618,118.089552 Z M106.805893,104.973385 L98.8650817,104.973385 C99.0626143,103.55115 99.5136472,102.458136 100.21818,101.694343 C100.922713,100.93055 101.84124,100.548654 102.97376,100.548654 C104.185294,100.548654 105.120282,100.894336 105.778724,101.5857 C106.437166,102.277065 106.779556,103.254851 106.805893,104.51906 L106.805893,104.51906 L106.805893,104.973385 Z M124.228271,117.694486 L128.27769,104.242514 L132.327109,117.694486 L137.107399,117.694486 L142.5593,96.3214558 L137.048139,96.3214558 L134.243176,109.931454 L130.351783,96.3214558 L126.223351,96.3214558 L122.312205,109.911701 L119.526995,96.3214558 L114.015834,96.3214558 L119.467735,117.694486 L124.228271,117.694486 Z" id="DesignPreview" fill="#FFFFFF"></path>
                </g>
            </g>
        </g>
    </g>
</svg>